<?xml version="1.0" encoding="UTF-8"?>
<svg id="_レイヤー_1" data-name="レイヤー 1" xmlns="http://www.w3.org/2000/svg" viewBox="0 0 772.19 254.62">
  <defs>
    <style>
      .cls-1 {
        fill: #fff;
      }
    </style>
  </defs>
  <path class="cls-1" d="M142.97,198.37h26.95c0,12.51-4.69,24.22-14.06,35.16-12.51,14.06-31.64,21.09-57.42,21.09-28.91,0-52.35-10.14-70.31-30.47C9.38,203.85,0,173.76,0,133.92S9.38,63.22,28.12,43.68c17.96-20.31,41.4-30.47,70.31-30.47,24.99,0,43.36,5.86,55.08,17.58,10.93,13.29,16.41,26.18,16.41,38.67h-26.95c0-10.93-3.52-19.13-10.55-24.61-7.82-5.46-18.75-8.2-32.81-8.2-20.32,0-36.33,6.65-48.05,19.92-14.06,18.75-21.09,44.53-21.09,77.34s7.03,59.38,21.09,77.34c11.72,14.06,27.34,21.09,46.88,21.09,14.06,0,25.38-3.11,33.98-9.38,7.03-6.24,10.55-14.45,10.55-24.61Z"/>
  <path class="cls-1" d="M262.88,222.98h106.64v24.61h-137.11V20.25h128.91v24.61h-98.44v72.66h85.55v22.27h-85.55v83.2Z"/>
  <path class="cls-1" d="M545.3,247.59l-112.5-180.47v180.47h-28.12V20.25h29.3l113.67,179.3V20.25h26.95v227.34h-29.3Z"/>
  <path class="cls-1" d="M772.19,43.68h-76.17v203.91h-29.3V43.68h-77.34v-23.44h182.81v23.44Z"/>
  <path class="cls-1" d="M417.27,105.32l91.29,143.16,23.44.24-122.96-190.05h0c-5.64,11.02-2.33,29.8,8.23,46.66Z"/>
  <polygon class="cls-1" points="123.31 140.95 216.56 140.95 222.19 122.61 128.94 122.61 123.31 140.95"/>
  <polygon class="cls-1" points="723.74 210.26 708.83 218.49 708.83 33.26 723.74 34.94 723.74 210.26"/>
  <path class="cls-1" d="M70.01,225.78l-22.97,8.03V67.24c0-3.48,7.24-4.57,9.6-1.45l13.37,17.66v142.34Z"/>
</svg>